<svg id="Capa_1" data-name="Capa 1" xmlns="http://www.w3.org/2000/svg" viewBox="0 0 498.15 498.14"><defs><style>.cls-1{fill:#095540;}.cls-2{fill:#fff;fill-rule:evenodd;}</style></defs><title>unedlogo</title><rect class="cls-1" width="498.15" height="498.14"/><path class="cls-2" d="M439.05,274c0-11.32,6.68-18.38,10.55-22.42,3.35-3.48,10.74-8.85,18.89-8.85h31.83v23.95l-24.15,0a15.27,15.27,0,0,0-9.39,4.94,15.54,15.54,0,0,0-3.78,8.42v13.28l31,0,.05,24H463v16.53s-.36,4.45,2.16,7.31c1.77,2,3.49,3.05,6.17,3.05h29v23.93H465.76A25.19,25.19,0,0,1,447,360.48c-5.52-5.48-7.94-10-7.94-18.79V274m171.49,66.33c-.17,29-26.22,27.83-33.56,27.83h-47.1V242.74h47.27c6.54,0,33.33-.39,33.39,28.94Zm-38.22,3.86c16.1,0,14.23-17.28,14.23-17.28l0-39c0-4.06,1.89-21.18-14.1-21.18H553.84v77.5ZM369.27,266.7h17V368.17h23.95V242.74H363.9c-17.34,0-34.26,12.21-34.31,29.55v95.88h24V287.12C353.55,276.25,356.74,266.69,369.27,266.7ZM261.48,344.21H244.26l.12-101.46H220.43V368.17H267c17.21,0,34-12.07,34-29.3V242.74h-24v81.34C277.05,334.86,273.93,344.22,261.48,344.21Z" transform="translate(-166.41 -56.93)"/></svg>