<?xml version="1.0" encoding="UTF-8"?>
<svg xmlns="http://www.w3.org/2000/svg" xmlns:xlink="http://www.w3.org/1999/xlink" width="708.82pt" height="331.35pt" viewBox="0 0 708.82 331.35" version="1.1">
<g id="surface1">
<path style=" stroke:none;fill-rule:nonzero;fill:rgb(100%,100%,100%);fill-opacity:1;" d="M 708.816406 331.351563 L 0 331.351563 L 0 0 L 708.816406 0 L 708.816406 331.351563 "/>
<path style=" stroke:none;fill-rule:nonzero;fill:rgb(47.099304%,46.299744%,38.398743%);fill-opacity:1;" d="M 280.964844 197.175781 L 280.597656 198.703125 L 277.699219 198.914063 C 276.382813 199.019531 275.90625 199.757813 275.484375 201.550781 L 271.324219 219.464844 C 269.003906 229.371094 272.695313 232.585938 278.542969 232.585938 C 285.867188 232.585938 288.449219 226.949219 290.082031 219.941406 L 294.351563 201.550781 C 294.773438 199.8125 294.402344 199.074219 293.191406 198.96875 L 290.082031 198.703125 L 290.449219 197.175781 L 304.890625 197.175781 L 304.519531 198.703125 L 301.621094 198.96875 C 300.304688 199.074219 299.828125 199.757813 299.410156 201.550781 L 294.929688 220.625 C 292.03125 232.902344 285.445313 234.429688 278.277344 234.429688 C 269.214844 234.429688 263.523438 230.636719 266.003906 220.152344 L 270.429688 201.550781 C 270.851563 199.8125 270.480469 199.074219 269.269531 198.96875 L 266.160156 198.703125 L 266.527344 197.175781 L 280.964844 197.175781 "/>
<path style=" stroke:none;fill-rule:nonzero;fill:rgb(47.099304%,46.299744%,38.398743%);fill-opacity:1;" d="M 301.308594 234.273438 L 306.84375 212.722656 C 307.316406 211.035156 307.316406 210.296875 306.050781 210.191406 L 302.785156 209.929688 L 303.101563 208.664063 L 312.742188 207.1875 L 313.007813 207.453125 L 309.582031 218.9375 L 309.742188 218.9375 C 312.902344 212.773438 318.382813 207.1875 323.441406 207.1875 C 327.761719 207.1875 328.394531 210.664063 327.183594 214.828125 L 323.070313 228.632813 C 322.597656 230.320313 322.546875 231.53125 323.597656 231.53125 C 325.074219 231.53125 327.394531 227.789063 328.339844 225.945313 L 329.605469 226.683594 C 327.8125 230.6875 324.863281 234.273438 320.910156 234.273438 C 318.066406 234.273438 317.382813 232.058594 318.222656 229.109375 L 322.753906 213.667969 C 323.335938 211.613281 322.859375 209.929688 321.015625 209.929688 C 316.746094 209.929688 311.691406 217.621094 309.742188 222.152344 C 308.371094 225.421875 307.476563 228.265625 305.945313 233.640625 L 301.308594 234.273438 "/>
<path style=" stroke:none;fill-rule:nonzero;fill:rgb(47.099304%,46.299744%,38.398743%);fill-opacity:1;" d="M 345.257813 207.1875 L 345.519531 207.453125 L 339.773438 228.632813 C 339.300781 230.320313 339.246094 231.53125 340.300781 231.53125 C 341.777344 231.53125 344.097656 227.789063 345.046875 225.945313 L 346.308594 226.683594 C 344.519531 230.6875 341.566406 234.273438 337.773438 234.273438 C 334.925781 234.273438 334.242188 232.113281 335.03125 229.109375 L 339.460938 212.617188 C 339.933594 210.773438 339.773438 210.296875 338.351563 210.191406 L 335.347656 209.929688 L 335.664063 208.664063 Z M 347.835938 198.863281 C 347.835938 200.972656 346.519531 202.394531 344.464844 202.394531 C 342.882813 202.394531 341.566406 201.390625 341.566406 199.441406 C 341.566406 197.757813 342.726563 195.964844 344.992188 195.964844 C 346.46875 195.964844 347.835938 196.808594 347.835938 198.863281 "/>
<path style=" stroke:none;fill-rule:nonzero;fill:rgb(47.099304%,46.299744%,38.398743%);fill-opacity:1;" d="M 361.324219 207.1875 L 361.589844 207.453125 L 357.007813 227.84375 C 356.425781 230.371094 357.371094 231.53125 358.691406 231.53125 C 363.011719 231.691406 369.808594 222.101563 370.230469 214.882813 C 370.230469 212.140625 370.125 210.140625 369.597656 208.296875 C 370.703125 207.609375 372.179688 207.1875 373.445313 207.1875 C 373.867188 207.1875 375.078125 209.242188 375.078125 211.296875 C 375.023438 214.566406 372.496094 220.308594 368.914063 225.15625 C 365.277344 230.058594 360.691406 234.273438 356.160156 234.273438 C 353.15625 234.273438 351.472656 232.164063 352.523438 227.371094 L 355.738281 212.722656 C 356.109375 210.980469 356.160156 210.296875 354.949219 210.191406 L 351.683594 209.929688 L 352 208.664063 L 361.324219 207.1875 "/>
<path style=" stroke:none;fill-rule:nonzero;fill:rgb(47.099304%,46.299744%,38.398743%);fill-opacity:1;" d="M 396.109375 226.738281 C 392.527344 232.585938 387.890625 234.273438 384.042969 234.273438 C 380.988281 234.273438 376.191406 233.007813 376.191406 225.632813 C 376.191406 221.203125 377.773438 216.621094 380.566406 213.195313 C 383.464844 209.613281 387.363281 207.1875 392.105469 207.1875 C 396.425781 207.1875 398.640625 209.664063 398.640625 212.457031 C 398.640625 213.933594 398.269531 215.671875 396.425781 217.515625 C 394.160156 219.621094 390.3125 221.730469 381.460938 223.523438 C 381.40625 223.890625 381.40625 224.101563 381.40625 224.367188 C 381.40625 228.527344 382.515625 231.691406 386.203125 231.691406 C 390.15625 231.691406 393.003906 228.160156 394.898438 225.683594 Z M 393.6875 212.140625 C 393.6875 210.296875 392.476563 209.03125 390.632813 209.03125 C 386.414063 209.03125 382.464844 215.355469 381.566406 221.730469 C 390.472656 219.835938 393.6875 215.828125 393.6875 212.140625 "/>
<path style=" stroke:none;fill-rule:nonzero;fill:rgb(47.099304%,46.299744%,38.398743%);fill-opacity:1;" d="M 401.324219 234.273438 L 406.175781 212.722656 C 406.542969 211.035156 406.648438 210.296875 405.382813 210.191406 L 402.117188 209.929688 L 402.433594 208.664063 L 411.496094 207.1875 L 411.761719 207.453125 L 409.390625 216.199219 L 409.492188 216.199219 C 412.339844 210.507813 415.976563 207.1875 418.925781 207.1875 C 420.609375 207.1875 421.351563 208.085938 421.296875 209.507813 C 421.296875 211.035156 420.136719 212.773438 418.820313 212.773438 C 417.136719 212.773438 416.765625 211.457031 415.132813 211.457031 C 413.128906 211.457031 410.492188 215.988281 408.597656 222.890625 C 407.753906 225.945313 406.753906 230.214844 405.855469 233.640625 L 401.324219 234.273438 "/>
<path style=" stroke:none;fill-rule:nonzero;fill:rgb(47.099304%,46.299744%,38.398743%);fill-opacity:1;" d="M 439.789063 211.296875 C 439.789063 212.933594 438.316406 213.722656 437.261719 213.722656 C 436.472656 213.722656 436.050781 213.300781 435.785156 212.667969 C 434.679688 210.191406 433.3125 209.03125 431.570313 209.03125 C 429.621094 209.03125 428.304688 210.773438 428.304688 212.457031 C 428.304688 213.933594 428.882813 215.671875 432.046875 218.253906 C 435.574219 221.152344 436.894531 223.417969 436.894531 226.316406 C 436.894531 230.636719 433.46875 234.273438 427.777344 234.273438 C 422.769531 234.273438 419.871094 231.53125 419.871094 229.265625 C 419.871094 227.84375 421.03125 226.421875 422.613281 226.421875 C 423.511719 226.421875 423.980469 227 424.300781 228.003906 C 425.144531 230.792969 427.09375 232.429688 429.039063 232.429688 C 431.253906 232.429688 432.835938 230.953125 432.835938 228.476563 C 432.835938 226.421875 431.464844 224.101563 429.199219 222.3125 C 426.460938 220.097656 424.5625 217.675781 424.5625 214.933594 C 424.5625 210.664063 427.726563 207.1875 433.101563 207.1875 C 437.789063 207.1875 439.789063 209.664063 439.789063 211.296875 "/>
<path style=" stroke:none;fill-rule:nonzero;fill:rgb(47.099304%,46.299744%,38.398743%);fill-opacity:1;" d="M 454.070313 207.1875 L 454.335938 207.453125 L 448.589844 228.632813 C 448.113281 230.320313 448.0625 231.53125 449.117188 231.53125 C 450.59375 231.53125 452.910156 227.789063 453.859375 225.945313 L 455.125 226.683594 C 453.332031 230.6875 450.382813 234.273438 446.589844 234.273438 C 443.742188 234.273438 443.058594 232.113281 443.847656 229.109375 L 448.273438 212.617188 C 448.746094 210.773438 448.589844 210.296875 447.167969 210.191406 L 444.164063 209.929688 L 444.480469 208.664063 Z M 456.652344 198.863281 C 456.652344 200.972656 455.335938 202.394531 453.277344 202.394531 C 451.699219 202.394531 450.382813 201.390625 450.382813 199.441406 C 450.382813 197.757813 451.539063 195.964844 453.808594 195.964844 C 455.28125 195.964844 456.652344 196.808594 456.652344 198.863281 "/>
<path style=" stroke:none;fill-rule:nonzero;fill:rgb(47.099304%,46.299744%,38.398743%);fill-opacity:1;" d="M 488.058594 194.542969 L 488.320313 194.804688 L 479.992188 228.632813 C 479.570313 230.320313 479.46875 231.53125 480.519531 231.53125 C 481.996094 231.53125 484.3125 227.789063 485.265625 225.945313 L 486.527344 226.683594 C 484.734375 230.6875 481.785156 234.273438 477.9375 234.273438 C 475.253906 234.324219 474.464844 232.164063 475.515625 228.421875 L 477.253906 222.152344 L 477.148438 222.152344 C 474.039063 227.789063 469.351563 234.273438 463.289063 234.273438 C 459.023438 234.273438 458.019531 230.742188 458.019531 227.316406 C 458.019531 220.941406 463.660156 207.1875 475.9375 207.1875 C 477.730469 207.1875 479.363281 207.558594 480.363281 208.085938 L 480.46875 207.980469 L 482.472656 199.496094 C 482.894531 197.808594 482.785156 197.441406 481.523438 197.335938 L 478.359375 197.019531 L 478.679688 195.808594 Z M 465.871094 231.53125 C 468.664063 231.53125 472.144531 227.578125 474.671875 223.46875 C 477.359375 219.097656 479.101563 214.144531 479.890625 210.085938 C 479.257813 209.507813 477.886719 209.03125 476.253906 209.03125 C 467.820313 209.03125 463.238281 222.046875 463.238281 227.738281 C 463.238281 230.109375 464.1875 231.53125 465.871094 231.53125 "/>
<path style=" stroke:none;fill-rule:nonzero;fill:rgb(47.099304%,46.299744%,38.398743%);fill-opacity:1;" d="M 515.71875 207.609375 L 510.136719 228.632813 C 509.660156 230.320313 509.605469 231.53125 510.660156 231.53125 C 512.136719 231.53125 514.453125 227.789063 515.402344 225.945313 L 516.667969 226.683594 C 514.878906 230.6875 511.925781 234.273438 507.921875 234.273438 C 505.074219 234.273438 504.496094 232.113281 505.601563 228.371094 L 507.394531 222.363281 L 507.289063 222.363281 C 504.230469 227.738281 499.332031 234.273438 493.691406 234.273438 C 490.109375 234.273438 488.636719 231.164063 488.636719 228.003906 C 488.636719 221.046875 494.644531 207.1875 507.183594 207.1875 C 508.605469 207.1875 510.136719 207.660156 511.027344 208.296875 L 511.292969 207.609375 Z M 507.289063 209.03125 C 499.015625 209.03125 493.851563 222.046875 493.851563 227.84375 C 493.851563 229.898438 494.433594 231.53125 496.171875 231.53125 C 498.699219 231.53125 501.914063 228.003906 504.863281 223.523438 C 507.65625 219.308594 509.554688 214.089844 510.503906 210.191406 C 509.714844 209.453125 508.554688 209.03125 507.289063 209.03125 "/>
<path style=" stroke:none;fill-rule:nonzero;fill:rgb(47.099304%,46.299744%,38.398743%);fill-opacity:1;" d="M 548.546875 194.542969 L 548.8125 194.804688 L 540.484375 228.632813 C 540.0625 230.320313 539.957031 231.53125 541.011719 231.53125 C 542.484375 231.53125 544.804688 227.789063 545.753906 225.945313 L 547.019531 226.683594 C 545.226563 230.6875 542.277344 234.273438 538.429688 234.273438 C 535.742188 234.324219 534.953125 232.164063 536.007813 228.421875 L 537.742188 222.152344 L 537.640625 222.152344 C 534.53125 227.789063 529.84375 234.273438 523.78125 234.273438 C 519.515625 234.273438 518.511719 230.742188 518.511719 227.316406 C 518.511719 220.941406 524.148438 207.1875 536.429688 207.1875 C 538.21875 207.1875 539.855469 207.558594 540.855469 208.085938 L 540.960938 207.980469 L 542.960938 199.496094 C 543.382813 197.808594 543.277344 197.441406 542.015625 197.335938 L 538.851563 197.019531 L 539.167969 195.808594 Z M 526.363281 231.53125 C 529.15625 231.53125 532.632813 227.578125 535.160156 223.46875 C 537.851563 219.097656 539.589844 214.144531 540.378906 210.085938 C 539.746094 209.507813 538.378906 209.03125 536.742188 209.03125 C 528.3125 209.03125 523.730469 222.046875 523.730469 227.738281 C 523.730469 230.109375 524.679688 231.53125 526.363281 231.53125 "/>
<path style=" stroke:none;fill-rule:nonzero;fill:rgb(47.099304%,46.299744%,38.398743%);fill-opacity:1;" d="M 292.453125 280.445313 L 289.871094 288.824219 C 286.5 290.507813 282.914063 291.035156 279.175781 291.035156 C 266.105469 291.035156 262.683594 282.710938 262.683594 275.753906 C 262.683594 272.121094 263.367188 267.273438 266.265625 262.582031 C 269.320313 257.628906 275.066406 252.992188 284.972656 252.992188 C 288.660156 252.992188 293.613281 253.886719 296.617188 255.785156 L 294.71875 263.6875 L 293.136719 263.6875 C 293.402344 257.945313 291.136719 254.835938 284.550781 254.835938 C 278.910156 254.835938 274.746094 257.890625 272.113281 262.320313 C 269.585938 266.535156 268.320313 272.382813 268.320313 277.125 C 268.320313 285.238281 272.695313 289.191406 278.804688 289.191406 C 285.285156 289.191406 287.976563 285.714844 290.871094 280.445313 L 292.453125 280.445313 "/>
<path style=" stroke:none;fill-rule:nonzero;fill:rgb(47.099304%,46.299744%,38.398743%);fill-opacity:1;" d="M 321.757813 264.214844 L 316.171875 285.238281 C 315.699219 286.925781 315.644531 288.136719 316.699219 288.136719 C 318.175781 288.136719 320.492188 284.398438 321.441406 282.550781 L 322.703125 283.289063 C 320.914063 287.292969 317.964844 290.878906 313.960938 290.878906 C 311.113281 290.878906 310.535156 288.71875 311.640625 284.976563 L 313.433594 278.96875 L 313.328125 278.96875 C 310.269531 284.34375 305.371094 290.878906 299.730469 290.878906 C 296.148438 290.878906 294.671875 287.769531 294.671875 284.609375 C 294.671875 277.652344 300.679688 263.792969 313.222656 263.792969 C 314.644531 263.792969 316.171875 264.269531 317.066406 264.902344 L 317.332031 264.214844 Z M 313.328125 265.636719 C 305.054688 265.636719 299.890625 278.652344 299.890625 284.449219 C 299.890625 286.503906 300.46875 288.136719 302.210938 288.136719 C 304.738281 288.136719 307.953125 284.609375 310.902344 280.128906 C 313.695313 275.914063 315.59375 270.695313 316.539063 266.796875 C 315.75 266.058594 314.589844 265.636719 313.328125 265.636719 "/>
<path style=" stroke:none;fill-rule:nonzero;fill:rgb(47.099304%,46.299744%,38.398743%);fill-opacity:1;" d="M 326.238281 290.878906 L 331.085938 269.328125 C 331.453125 267.640625 331.558594 266.902344 330.292969 266.796875 L 327.027344 266.535156 L 327.34375 265.269531 L 336.40625 263.792969 L 336.671875 264.058594 L 334.296875 272.804688 L 334.402344 272.804688 C 337.25 267.113281 340.886719 263.792969 343.835938 263.792969 C 345.519531 263.792969 346.261719 264.691406 346.207031 266.113281 C 346.207031 267.640625 345.046875 269.378906 343.730469 269.378906 C 342.046875 269.378906 341.675781 268.0625 340.039063 268.0625 C 338.039063 268.0625 335.40625 272.59375 333.507813 279.496094 C 332.664063 282.550781 331.664063 286.820313 330.769531 290.246094 L 326.238281 290.878906 "/>
<path style=" stroke:none;fill-rule:nonzero;fill:rgb(47.099304%,46.299744%,38.398743%);fill-opacity:1;" d="M 374.402344 251.148438 L 374.664063 251.410156 L 366.34375 285.238281 C 365.921875 286.925781 365.8125 288.136719 366.867188 288.136719 C 368.34375 288.136719 370.660156 284.398438 371.609375 282.550781 L 372.875 283.289063 C 371.085938 287.292969 368.132813 290.878906 364.285156 290.878906 C 361.601563 290.929688 360.808594 288.769531 361.863281 285.027344 L 363.601563 278.757813 L 363.496094 278.757813 C 360.386719 284.398438 355.695313 290.878906 349.640625 290.878906 C 345.367188 290.878906 344.367188 287.347656 344.367188 283.921875 C 344.367188 277.546875 350.007813 263.792969 362.28125 263.792969 C 364.074219 263.792969 365.710938 264.164063 366.710938 264.691406 L 366.816406 264.585938 L 368.816406 256.101563 C 369.238281 254.414063 369.136719 254.046875 367.867188 253.941406 L 364.707031 253.625 L 365.023438 252.414063 Z M 352.222656 288.136719 C 355.011719 288.136719 358.488281 284.1875 361.019531 280.074219 C 363.707031 275.703125 365.445313 270.75 366.234375 266.691406 C 365.605469 266.113281 364.234375 265.636719 362.601563 265.636719 C 354.171875 265.636719 349.585938 278.652344 349.585938 284.34375 C 349.585938 286.714844 350.53125 288.136719 352.222656 288.136719 "/>
<path style=" stroke:none;fill-rule:nonzero;fill:rgb(47.099304%,46.299744%,38.398743%);fill-opacity:1;" d="M 395.636719 283.34375 C 392.054688 289.191406 387.417969 290.878906 383.570313 290.878906 C 380.515625 290.878906 375.722656 289.613281 375.722656 282.238281 C 375.722656 277.808594 377.300781 273.226563 380.09375 269.800781 C 382.992188 266.21875 386.890625 263.792969 391.632813 263.792969 C 395.953125 263.792969 398.164063 266.269531 398.164063 269.0625 C 398.164063 270.539063 397.800781 272.277344 395.953125 274.121094 C 393.6875 276.230469 389.84375 278.335938 380.988281 280.128906 C 380.9375 280.496094 380.9375 280.707031 380.9375 280.972656 C 380.9375 285.132813 382.042969 288.296875 385.730469 288.296875 C 389.683594 288.296875 392.527344 284.765625 394.425781 282.289063 Z M 393.214844 268.746094 C 393.214844 266.902344 392.003906 265.636719 390.15625 265.636719 C 385.941406 265.636719 381.988281 271.960938 381.09375 278.335938 C 390 276.441406 393.214844 272.4375 393.214844 268.746094 "/>
<path style=" stroke:none;fill-rule:nonzero;fill:rgb(47.099304%,46.299744%,38.398743%);fill-opacity:1;" d="M 400.535156 290.878906 L 406.070313 269.328125 C 406.546875 267.640625 406.546875 266.902344 405.277344 266.796875 L 402.015625 266.535156 L 402.328125 265.269531 L 411.972656 263.792969 L 412.234375 264.058594 L 408.8125 275.542969 L 408.96875 275.542969 C 412.128906 269.378906 417.609375 263.792969 422.667969 263.792969 C 426.988281 263.792969 427.621094 267.273438 426.410156 271.433594 L 422.300781 285.238281 C 421.824219 286.925781 421.769531 288.136719 422.824219 288.136719 C 424.300781 288.136719 426.621094 284.398438 427.566406 282.550781 L 428.835938 283.289063 C 427.039063 287.292969 424.09375 290.878906 420.140625 290.878906 C 417.292969 290.878906 416.609375 288.664063 417.449219 285.714844 L 421.980469 270.273438 C 422.5625 268.21875 422.089844 266.535156 420.242188 266.535156 C 415.976563 266.535156 410.917969 274.226563 408.96875 278.757813 C 407.597656 282.027344 406.703125 284.871094 405.175781 290.246094 L 400.535156 290.878906 "/>
<path style=" stroke:none;fill-rule:nonzero;fill:rgb(47.099304%,46.299744%,38.398743%);fill-opacity:1;" d="M 458.5 264.214844 L 452.914063 285.238281 C 452.4375 286.925781 452.386719 288.136719 453.441406 288.136719 C 454.914063 288.136719 457.234375 284.398438 458.183594 282.550781 L 459.445313 283.289063 C 457.65625 287.292969 454.703125 290.878906 450.699219 290.878906 C 447.855469 290.878906 447.273438 288.71875 448.382813 284.976563 L 450.175781 278.96875 L 450.066406 278.96875 C 447.011719 284.34375 442.109375 290.878906 436.476563 290.878906 C 432.890625 290.878906 431.414063 287.769531 431.414063 284.609375 C 431.414063 277.652344 437.421875 263.792969 449.964844 263.792969 C 451.386719 263.792969 452.914063 264.269531 453.8125 264.902344 L 454.074219 264.214844 Z M 450.066406 265.636719 C 441.796875 265.636719 436.632813 278.652344 436.632813 284.449219 C 436.632813 286.503906 437.210938 288.136719 438.949219 288.136719 C 441.480469 288.136719 444.691406 284.609375 447.644531 280.128906 C 450.4375 275.914063 452.335938 270.695313 453.28125 266.796875 C 452.492188 266.058594 451.335938 265.636719 450.066406 265.636719 "/>
<path style=" stroke:none;fill-rule:nonzero;fill:rgb(47.099304%,46.299744%,38.398743%);fill-opacity:1;" d="M 476.519531 251.148438 L 476.78125 251.410156 L 468.300781 285.292969 C 467.878906 287.03125 467.878906 288.136719 468.824219 288.136719 C 470.09375 288.136719 472.464844 284.921875 473.675781 282.550781 L 474.9375 283.289063 C 473.253906 287.242188 470.039063 290.878906 466.351563 290.878906 C 463.503906 290.878906 462.871094 288.71875 463.609375 285.714844 L 470.828125 256.574219 C 471.355469 254.519531 471.09375 254.152344 469.773438 253.992188 L 466.769531 253.625 L 467.089844 252.414063 L 476.519531 251.148438 "/>
<path style=" stroke:none;fill-rule:nonzero;fill:rgb(47.099304%,46.299744%,38.398743%);fill-opacity:1;" d="M 519.199219 270.273438 L 521.9375 258.15625 C 522.308594 256.46875 521.992188 255.625 520.78125 255.519531 L 517.671875 255.308594 L 518.039063 253.78125 L 532.480469 253.78125 L 532.109375 255.308594 L 529.210938 255.574219 C 527.894531 255.679688 527.421875 256.417969 526.996094 258.15625 L 520.675781 285.871094 C 520.253906 287.609375 520.570313 288.402344 521.835938 288.507813 L 524.941406 288.71875 L 524.628906 290.246094 L 510.1875 290.246094 L 510.507813 288.71875 L 513.402344 288.402344 C 514.667969 288.296875 515.195313 287.664063 515.617188 285.871094 L 518.726563 272.277344 L 501.128906 272.277344 L 498.070313 285.871094 C 497.699219 287.609375 497.964844 288.402344 499.230469 288.507813 L 502.339844 288.71875 L 502.023438 290.246094 L 487.585938 290.246094 L 487.898438 288.71875 L 490.800781 288.402344 C 492.0625 288.296875 492.589844 287.664063 493.011719 285.871094 L 499.335938 258.15625 C 499.703125 256.46875 499.390625 255.625 498.175781 255.519531 L 495.066406 255.308594 L 495.4375 253.78125 L 509.871094 253.78125 L 509.503906 255.308594 L 506.605469 255.574219 C 505.289063 255.679688 504.8125 256.417969 504.394531 258.15625 L 501.601563 270.273438 L 519.199219 270.273438 "/>
<path style=" stroke:none;fill-rule:nonzero;fill:rgb(47.099304%,46.299744%,38.398743%);fill-opacity:1;" d="M 549.816406 283.34375 C 546.230469 289.191406 541.597656 290.878906 537.75 290.878906 C 534.691406 290.878906 529.898438 289.613281 529.898438 282.238281 C 529.898438 277.808594 531.480469 273.226563 534.269531 269.800781 C 537.171875 266.21875 541.066406 263.792969 545.8125 263.792969 C 550.132813 263.792969 552.347656 266.269531 552.347656 269.0625 C 552.347656 270.539063 551.976563 272.277344 550.132813 274.121094 C 547.867188 276.230469 544.019531 278.335938 535.167969 280.128906 C 535.113281 280.496094 535.113281 280.707031 535.113281 280.972656 C 535.113281 285.132813 536.222656 288.296875 539.910156 288.296875 C 543.859375 288.296875 546.707031 284.765625 548.605469 282.289063 Z M 547.394531 268.746094 C 547.394531 266.902344 546.179688 265.636719 544.335938 265.636719 C 540.121094 265.636719 536.167969 271.960938 535.273438 278.335938 C 544.179688 276.441406 547.394531 272.4375 547.394531 268.746094 "/>
<path style=" stroke:none;fill-rule:nonzero;fill:rgb(47.099304%,46.299744%,38.398743%);fill-opacity:1;" d="M 555.03125 290.878906 L 559.882813 269.328125 C 560.246094 267.640625 560.355469 266.902344 559.089844 266.796875 L 555.820313 266.535156 L 556.140625 265.269531 L 565.199219 263.792969 L 565.464844 264.058594 L 563.09375 272.804688 L 563.199219 272.804688 C 566.046875 267.113281 569.683594 263.792969 572.632813 263.792969 C 574.316406 263.792969 575.054688 264.691406 575.003906 266.113281 C 575.003906 267.640625 573.84375 269.378906 572.523438 269.378906 C 570.839844 269.378906 570.472656 268.0625 568.839844 268.0625 C 566.835938 268.0625 564.199219 272.59375 562.304688 279.496094 C 561.460938 282.550781 560.460938 286.820313 559.5625 290.246094 L 555.03125 290.878906 "/>
<path style=" stroke:none;fill-rule:nonzero;fill:rgb(47.099304%,46.299744%,38.398743%);fill-opacity:1;" d="M 576.214844 290.878906 L 581.0625 269.328125 C 581.433594 267.640625 581.535156 266.902344 580.269531 266.796875 L 577.007813 266.535156 L 577.320313 265.269531 L 586.386719 263.792969 L 586.648438 264.058594 L 584.277344 272.804688 L 584.382813 272.804688 C 587.230469 267.113281 590.863281 263.792969 593.8125 263.792969 C 595.5 263.792969 596.238281 264.691406 596.1875 266.113281 C 596.1875 267.640625 595.023438 269.378906 593.710938 269.378906 C 592.023438 269.378906 591.652344 268.0625 590.019531 268.0625 C 588.019531 268.0625 585.382813 272.59375 583.484375 279.496094 C 582.644531 282.550781 581.644531 286.820313 580.746094 290.246094 L 576.214844 290.878906 "/>
<path style=" stroke:none;fill-rule:nonzero;fill:rgb(47.099304%,46.299744%,38.398743%);fill-opacity:1;" d="M 614.6875 283.34375 C 611.105469 289.191406 606.46875 290.878906 602.617188 290.878906 C 599.5625 290.878906 594.769531 289.613281 594.769531 282.238281 C 594.769531 277.808594 596.351563 273.226563 599.144531 269.800781 C 602.039063 266.21875 605.9375 263.792969 610.683594 263.792969 C 615.003906 263.792969 617.214844 266.269531 617.214844 269.0625 C 617.214844 270.539063 616.847656 272.277344 615.003906 274.121094 C 612.734375 276.230469 608.890625 278.335938 600.035156 280.128906 C 599.984375 280.496094 599.984375 280.707031 599.984375 280.972656 C 599.984375 285.132813 601.09375 288.296875 604.777344 288.296875 C 608.730469 288.296875 611.578125 284.765625 613.476563 282.289063 Z M 612.261719 268.746094 C 612.261719 266.902344 611.050781 265.636719 609.207031 265.636719 C 604.988281 265.636719 601.039063 271.960938 600.144531 278.335938 C 609.050781 276.441406 612.261719 272.4375 612.261719 268.746094 "/>
<path style=" stroke:none;fill-rule:nonzero;fill:rgb(47.099304%,46.299744%,38.398743%);fill-opacity:1;" d="M 619.902344 290.878906 L 624.75 269.328125 C 625.117188 267.640625 625.226563 266.902344 623.960938 266.796875 L 620.691406 266.535156 L 621.011719 265.269531 L 630.070313 263.792969 L 630.335938 264.058594 L 627.964844 272.804688 L 628.070313 272.804688 C 630.914063 267.113281 634.550781 263.792969 637.503906 263.792969 C 639.1875 263.792969 639.925781 264.691406 639.871094 266.113281 C 639.871094 267.640625 638.714844 269.378906 637.394531 269.378906 C 635.710938 269.378906 635.34375 268.0625 633.707031 268.0625 C 631.703125 268.0625 629.070313 272.59375 627.175781 279.496094 C 626.328125 282.550781 625.328125 286.820313 624.433594 290.246094 L 619.902344 290.878906 "/>
<path style=" stroke:none;fill-rule:nonzero;fill:rgb(47.099304%,46.299744%,38.398743%);fill-opacity:1;" d="M 665.121094 264.214844 L 659.539063 285.238281 C 659.0625 286.925781 659.011719 288.136719 660.0625 288.136719 C 661.539063 288.136719 663.859375 284.398438 664.808594 282.550781 L 666.070313 283.289063 C 664.28125 287.292969 661.328125 290.878906 657.324219 290.878906 C 654.480469 290.878906 653.898438 288.71875 655.007813 284.976563 L 656.800781 278.96875 L 656.691406 278.96875 C 653.636719 284.34375 648.734375 290.878906 643.097656 290.878906 C 639.515625 290.878906 638.039063 287.769531 638.039063 284.609375 C 638.039063 277.652344 644.046875 263.792969 656.589844 263.792969 C 658.011719 263.792969 659.539063 264.269531 660.433594 264.902344 L 660.695313 264.214844 Z M 656.691406 265.636719 C 648.421875 265.636719 643.257813 278.652344 643.257813 284.449219 C 643.257813 286.503906 643.835938 288.136719 645.574219 288.136719 C 648.105469 288.136719 651.316406 284.609375 654.269531 280.128906 C 657.0625 275.914063 658.960938 270.695313 659.90625 266.796875 C 659.117188 266.058594 657.957031 265.636719 656.691406 265.636719 "/>
<path style=" stroke:none;fill-rule:nonzero;fill:rgb(75.698853%,80.39856%,13.699341%);fill-opacity:1;" d="M 210.792969 118.039063 C 210.792969 164.679688 172.96875 202.496094 126.335938 202.496094 C 79.6875 202.496094 41.871094 164.679688 41.871094 118.039063 C 41.871094 71.394531 79.6875 33.578125 126.335938 33.578125 C 172.96875 33.578125 210.792969 71.394531 210.792969 118.039063 "/>
<path style=" stroke:none;fill-rule:nonzero;fill:rgb(92.89856%,10.998535%,14.099121%);fill-opacity:1;" d="M 41.871094 118.039063 C 41.871094 124.214844 42.542969 130.246094 43.808594 136.054688 L 208.859375 136.054688 C 210.117188 130.246094 210.792969 124.214844 210.792969 118.039063 C 210.792969 111.84375 210.117188 105.820313 208.859375 100.011719 L 43.808594 100.011719 C 42.542969 105.820313 41.871094 111.84375 41.871094 118.039063 "/>
<path style=" stroke:none;fill-rule:nonzero;fill:rgb(0%,63.09967%,89.399719%);fill-opacity:1;" d="M 108.3125 200.558594 C 114.117188 201.828125 120.152344 202.496094 126.335938 202.496094 C 132.515625 202.496094 138.539063 201.828125 144.347656 200.558594 L 144.347656 35.507813 C 138.539063 34.25 132.515625 33.578125 126.335938 33.578125 C 120.152344 33.578125 114.117188 34.25 108.3125 35.507813 L 108.3125 200.558594 "/>
<path style=" stroke:none;fill-rule:nonzero;fill:rgb(67.498779%,30.599976%,57.598877%);fill-opacity:1;" d="M 108.3125 100.011719 L 108.3125 136.054688 L 144.347656 136.054688 L 144.347656 100.011719 L 108.3125 100.011719 "/>
<path style=" stroke:none;fill-rule:nonzero;fill:rgb(47.099304%,46.299744%,38.398743%);fill-opacity:1;" d="M 318.304688 103.222656 L 315.019531 103.222656 C 312.941406 90.3125 305.179688 85.734375 294.027344 85.734375 C 273.683594 85.625 266.578125 103.660156 266.578125 121.597656 C 266.578125 134.828125 271.277344 157.023438 293.8125 157.023438 C 308.128906 157.023438 313.710938 148.71875 316.78125 137.351563 L 320.054688 137.351563 L 318.523438 155.605469 C 313.273438 158.445313 303.214844 160.851563 294.464844 160.851563 C 282.21875 160.851563 271.5 158.339844 264.722656 151.5625 C 258.15625 144.996094 254.328125 134.71875 254.328125 121.925781 C 254.328125 109.570313 258.046875 100.160156 264.277344 93.164063 C 270.839844 85.839844 281.667969 81.910156 295.121094 81.910156 C 305.066406 81.910156 313.386719 83.867188 318.304688 86.160156 L 318.304688 103.222656 "/>
<path style=" stroke:none;fill-rule:nonzero;fill:rgb(47.099304%,46.299744%,38.398743%);fill-opacity:1;" d="M 385.125 83.542969 L 385.125 101.476563 L 381.84375 101.476563 C 380.3125 90.097656 377.792969 87.367188 365.324219 87.367188 L 354.605469 87.367188 C 351.105469 87.367188 350.5625 87.808594 350.5625 91.300781 L 350.5625 117.765625 L 365.878906 117.765625 C 375.171875 117.765625 375.605469 115.144531 376.589844 108.359375 L 379.882813 108.359375 L 379.882813 131.445313 L 376.589844 131.445313 C 375.605469 124.550781 375.171875 121.925781 365.878906 121.925781 L 350.5625 121.925781 L 350.5625 146.097656 C 350.5625 151.449219 351.003906 153.308594 353.292969 154.296875 C 355.597656 155.167969 359.535156 155.382813 364.675781 155.382813 C 378.449219 155.382813 383.382813 153.636719 385.890625 140.296875 L 389.167969 140.296875 L 387.851563 159.214844 L 329.894531 159.214844 L 329.894531 156.046875 C 339.519531 155.382813 339.742188 155.167969 339.742188 149.046875 L 339.742188 93.714844 C 339.742188 87.589844 339.519531 87.367188 329.894531 86.710938 L 329.894531 83.542969 L 385.125 83.542969 "/>
<path style=" stroke:none;fill-rule:nonzero;fill:rgb(47.099304%,46.299744%,38.398743%);fill-opacity:1;" d="M 475.664063 83.542969 L 475.664063 86.710938 C 466.15625 87.367188 465.824219 87.589844 465.824219 93.714844 L 465.824219 131.324219 C 465.824219 137.890625 464.738281 143.695313 462.878906 147.511719 C 457.84375 158.339844 446.363281 160.851563 435.539063 160.851563 C 424.820313 160.851563 413.335938 158.230469 408.304688 147.511719 C 406.449219 143.796875 405.460938 138.003906 405.351563 131.542969 L 405.351563 93.714844 C 405.351563 87.589844 405.132813 87.367188 395.519531 86.710938 L 395.519531 83.542969 L 426.027344 83.542969 L 426.027344 86.710938 C 416.507813 87.367188 416.179688 87.589844 416.179688 93.714844 L 416.179688 129.140625 C 416.179688 139.535156 417.828125 146.097656 421.097656 150.472656 C 424.488281 154.839844 429.300781 157.023438 435.539063 157.023438 C 441.878906 157.023438 446.695313 154.839844 450.085938 150.472656 C 453.359375 146.097656 455.003906 139.535156 455.003906 129.140625 L 455.003906 93.714844 C 455.003906 87.589844 454.78125 87.367188 445.164063 86.710938 L 445.164063 83.542969 L 475.664063 83.542969 "/>
</g>
</svg>
